<svg xmlns="http://www.w3.org/2000/svg" width="224.45000000000002" height="35" viewBox="0 0 224.45000000000002 35"><rect class="svg__rect" x="0" y="0" width="138.42000000000002" height="35" fill="#EA4560"/><rect class="svg__rect" x="136.42000000000002" y="0" width="88.03" height="35" fill="#E46C17"/><path class="svg__text" d="M19.80 22L14.22 22L14.22 13.47L19.75 13.47L19.75 14.66L15.70 14.66L15.70 17.02L19.20 17.02L19.20 18.19L15.70 18.19L15.70 20.82L19.80 20.82L19.80 22ZM23.56 19.42L23.56 19.42L25.04 19.42Q25.04 20.15 25.52 20.55Q26.00 20.95 26.90 20.95L26.90 20.95Q27.67 20.95 28.06 20.63Q28.45 20.32 28.45 19.80L28.45 19.80Q28.45 19.24 28.05 18.94Q27.66 18.63 26.63 18.32Q25.60 18.01 24.99 17.63L24.99 17.63Q23.82 16.90 23.82 15.72L23.82 15.72Q23.82 14.69 24.66 14.02Q25.50 13.35 26.84 13.35L26.84 13.35Q27.73 13.35 28.43 13.68Q29.13 14.01 29.53 14.61Q29.93 15.22 29.93 15.96L29.93 15.96L28.45 15.96Q28.45 15.29 28.03 14.91Q27.61 14.54 26.83 14.54L26.83 14.54Q26.11 14.54 25.70 14.85Q25.30 15.16 25.30 15.71L25.30 15.71Q25.30 16.18 25.74 16.50Q26.17 16.81 27.17 17.10Q28.16 17.40 28.77 17.78Q29.37 18.16 29.65 18.65Q29.93 19.13 29.93 19.79L29.93 19.79Q29.93 20.86 29.11 21.49Q28.30 22.12 26.90 22.12L26.90 22.12Q25.97 22.12 25.19 21.77Q24.42 21.43 23.99 20.83Q23.56 20.22 23.56 19.42ZM33.95 18.19L33.95 18.19L33.95 17.39Q33.95 16.19 34.38 15.27Q34.81 14.35 35.61 13.85Q36.41 13.35 37.46 13.35L37.46 13.35Q38.87 13.35 39.73 14.12Q40.59 14.89 40.73 16.29L40.73 16.29L39.25 16.29Q39.15 15.37 38.72 14.96Q38.29 14.55 37.46 14.55L37.46 14.55Q36.49 14.55 35.97 15.26Q35.45 15.96 35.44 17.33L35.44 17.33L35.44 18.09Q35.44 19.47 35.93 20.20Q36.43 20.92 37.39 20.92L37.39 20.92Q38.26 20.92 38.70 20.53Q39.14 20.14 39.25 19.22L39.25 19.22L40.73 19.22Q40.60 20.59 39.72 21.35Q38.84 22.12 37.39 22.12L37.39 22.12Q36.37 22.12 35.59 21.63Q34.81 21.15 34.39 20.26Q33.97 19.37 33.95 18.19ZM45.82 22L44.28 22L47.50 13.47L48.83 13.47L52.06 22L50.52 22L49.82 20.01L46.51 20.01L45.82 22ZM48.17 15.28L46.93 18.82L49.40 18.82L48.17 15.28ZM57.50 22L56.02 22L56.02 13.47L59.28 13.47Q60.71 13.47 61.55 14.21Q62.39 14.96 62.39 16.18L62.39 16.18Q62.39 17.44 61.57 18.13Q60.75 18.83 59.26 18.83L59.26 18.83L57.50 18.83L57.50 22ZM57.50 14.66L57.50 17.64L59.28 17.64Q60.07 17.64 60.49 17.27Q60.90 16.90 60.90 16.19L60.90 16.19Q60.90 15.50 60.48 15.09Q60.06 14.68 59.32 14.66L59.32 14.66L57.50 14.66ZM72.25 22L66.68 22L66.68 13.47L72.21 13.47L72.21 14.66L68.16 14.66L68.16 17.02L71.66 17.02L71.66 18.19L68.16 18.19L68.16 20.82L72.25 20.82L72.25 22ZM76.02 19.42L76.02 19.42L77.50 19.42Q77.50 20.15 77.98 20.55Q78.46 20.95 79.36 20.95L79.36 20.95Q80.13 20.95 80.52 20.63Q80.91 20.32 80.91 19.80L80.91 19.80Q80.91 19.24 80.51 18.94Q80.12 18.63 79.09 18.32Q78.06 18.01 77.45 17.63L77.45 17.63Q76.28 16.90 76.28 15.72L76.28 15.72Q76.28 14.69 77.12 14.02Q77.96 13.35 79.30 13.35L79.30 13.35Q80.19 13.35 80.89 13.68Q81.59 14.01 81.99 14.61Q82.39 15.22 82.39 15.96L82.39 15.96L80.91 15.96Q80.91 15.29 80.49 14.91Q80.07 14.54 79.29 14.54L79.29 14.54Q78.56 14.54 78.16 14.85Q77.76 15.16 77.76 15.71L77.76 15.71Q77.76 16.18 78.20 16.50Q78.63 16.81 79.63 17.10Q80.62 17.40 81.22 17.78Q81.83 18.16 82.11 18.65Q82.39 19.13 82.39 19.79L82.39 19.79Q82.39 20.86 81.57 21.49Q80.76 22.12 79.36 22.12L79.36 22.12Q78.43 22.12 77.65 21.77Q76.88 21.43 76.45 20.83Q76.02 20.22 76.02 19.42ZM98.01 22L92.66 22L92.66 13.47L94.14 13.47L94.14 20.82L98.01 20.82L98.01 22ZM103.70 22L102.22 22L102.22 13.47L103.70 13.47L103.70 22ZM109.99 22L108.51 22L108.51 13.47L109.99 13.47L109.99 17.47L110.81 16.46L113.31 13.47L115.10 13.47L111.93 17.25L115.29 22L113.53 22L110.96 18.31L109.99 19.34L109.99 22ZM124.64 22L119.06 22L119.06 13.47L124.60 13.47L124.60 14.66L120.55 14.66L120.55 17.02L124.05 17.02L124.05 18.19L120.55 18.19L120.55 20.82L124.64 20.82L124.64 22Z" fill="#FFFFFF"/><path class="svg__text" d="M152.03 22L149.60 22L153.31 13.60L155.65 13.60L159.37 22L156.90 22L156.24 20.37L152.69 20.37L152.03 22ZM154.46 15.93L153.38 18.61L155.54 18.61L154.46 15.93ZM172.85 22L170.49 22L170.49 13.60L172.85 13.60L172.85 17.09L176.10 13.60L178.72 13.60L175.29 17.32L178.90 22L176.14 22L173.73 18.95L172.85 19.90L172.85 22ZM185.38 22L183.00 22L183.00 13.60L185.38 13.60L185.38 22ZM192.89 22L190.56 22L190.56 13.60L192.51 13.60L196.22 18.07L196.22 13.60L198.55 13.60L198.55 22L196.60 22L192.89 17.52L192.89 22ZM203.28 17.80L203.28 17.80Q203.28 16.54 203.88 15.54Q204.48 14.55 205.55 13.99Q206.62 13.43 207.96 13.43L207.96 13.43Q209.14 13.43 210.07 13.83Q211.01 14.22 211.63 14.97L211.63 14.97L210.12 16.33Q209.28 15.40 208.10 15.40L208.10 15.40Q208.09 15.40 208.08 15.40L208.08 15.40Q207.00 15.40 206.34 16.06Q205.68 16.71 205.68 17.80L205.68 17.80Q205.68 18.50 205.98 19.04Q206.28 19.59 206.82 19.89Q207.36 20.20 208.06 20.20L208.06 20.20Q208.74 20.20 209.34 19.93L209.34 19.93L209.34 17.62L211.44 17.62L211.44 21.10Q210.72 21.61 209.78 21.89Q208.85 22.17 207.91 22.17L207.91 22.17Q206.59 22.17 205.54 21.61Q204.48 21.05 203.88 20.05Q203.28 19.06 203.28 17.80Z" fill="#FFFFFF" x="149.42000000000002"/></svg>