<svg xmlns="http://www.w3.org/2000/svg" width="161.36" height="35" viewBox="0 0 161.36 35"><rect class="svg__rect" x="0" y="0" width="115.31" height="35" fill="#31C4F3"/><rect class="svg__rect" x="113.31" y="0" width="48.05000000000001" height="35" fill="#389AD5"/><path class="svg__text" d="M15.69 22L14.22 22L14.22 13.47L16.14 13.47L18.60 20.01L21.06 13.47L22.97 13.47L22.97 22L21.49 22L21.49 19.19L21.64 15.43L19.12 22L18.06 22L15.55 15.43L15.69 19.19L15.69 22ZM28.49 22L26.95 22L30.17 13.47L31.50 13.47L34.73 22L33.18 22L32.49 20.01L29.18 20.01L28.49 22ZM30.83 15.28L29.60 18.82L32.07 18.82L30.83 15.28ZM41.14 22L38.69 22L38.69 13.47L41.21 13.47Q42.34 13.47 43.21 13.97Q44.09 14.48 44.57 15.40Q45.05 16.33 45.05 17.52L45.05 17.52L45.05 17.95Q45.05 19.16 44.57 20.08Q44.08 21.00 43.19 21.50Q42.30 22 41.14 22L41.14 22ZM40.17 14.66L40.17 20.82L41.14 20.82Q42.30 20.82 42.93 20.09Q43.55 19.36 43.56 17.99L43.56 17.99L43.56 17.52Q43.56 16.13 42.96 15.40Q42.35 14.66 41.21 14.66L41.21 14.66L40.17 14.66ZM55.09 22L49.51 22L49.51 13.47L55.05 13.47L55.05 14.66L51.00 14.66L51.00 17.02L54.50 17.02L54.50 18.19L51.00 18.19L51.00 20.82L55.09 20.82L55.09 22ZM66.65 22L64.68 13.47L66.15 13.47L67.47 19.88L69.10 13.47L70.34 13.47L71.96 19.89L73.27 13.47L74.74 13.47L72.77 22L71.35 22L69.73 15.77L68.07 22L66.65 22ZM80.38 22L78.90 22L78.90 13.47L80.38 13.47L80.38 22ZM86.87 14.66L84.23 14.66L84.23 13.47L91.00 13.47L91.00 14.66L88.34 14.66L88.34 22L86.87 22L86.87 14.66ZM96.24 22L94.75 22L94.75 13.47L96.24 13.47L96.24 17.02L100.05 17.02L100.05 13.47L101.53 13.47L101.53 22L100.05 22L100.05 18.21L96.24 18.21L96.24 22Z" fill="#FFFFFF"/><path class="svg__text" d="M127.07 17.80L127.07 17.80Q127.07 16.54 127.67 15.54Q128.27 14.55 129.33 13.99Q130.40 13.43 131.75 13.43L131.75 13.43Q132.92 13.43 133.86 13.83Q134.80 14.22 135.42 14.97L135.42 14.97L133.91 16.33Q133.06 15.40 131.89 15.40L131.89 15.40Q131.87 15.40 131.87 15.40L131.87 15.40Q130.79 15.40 130.13 16.06Q129.47 16.71 129.47 17.80L129.47 17.80Q129.47 18.50 129.77 19.04Q130.07 19.59 130.61 19.89Q131.15 20.20 131.85 20.20L131.85 20.20Q132.53 20.20 133.13 19.93L133.13 19.93L133.13 17.62L135.23 17.62L135.23 21.10Q134.51 21.61 133.57 21.89Q132.64 22.17 131.70 22.17L131.70 22.17Q130.38 22.17 129.32 21.61Q128.27 21.05 127.67 20.05Q127.07 19.06 127.07 17.80ZM139.79 17.80L139.79 17.80Q139.79 16.55 140.39 15.55Q141.00 14.56 142.06 14.00Q143.12 13.43 144.45 13.43L144.45 13.43Q145.78 13.43 146.85 14.00Q147.91 14.56 148.52 15.55Q149.12 16.55 149.12 17.80L149.12 17.80Q149.12 19.05 148.52 20.04Q147.91 21.04 146.85 21.60Q145.79 22.17 144.45 22.17L144.45 22.17Q143.12 22.17 142.06 21.60Q141.00 21.04 140.39 20.04Q139.79 19.05 139.79 17.80ZM142.19 17.80L142.19 17.80Q142.19 18.51 142.49 19.05Q142.79 19.60 143.31 19.90Q143.82 20.20 144.45 20.20L144.45 20.20Q145.09 20.20 145.61 19.90Q146.12 19.60 146.42 19.05Q146.72 18.51 146.72 17.80L146.72 17.80Q146.72 17.09 146.42 16.54Q146.12 16 145.61 15.70Q145.09 15.40 144.45 15.40L144.45 15.40Q143.82 15.40 143.30 15.70Q142.79 16 142.49 16.54Q142.19 17.09 142.19 17.80Z" fill="#FFFFFF" x="126.31"/></svg>