<svg xmlns="http://www.w3.org/2000/svg" width="223.12" height="35" viewBox="0 0 223.12 35"><rect class="svg__rect" x="0" y="0" width="108.68" height="35" fill="#EA4560"/><rect class="svg__rect" x="106.68" y="0" width="116.44" height="35" fill="#8FC965"/><path class="svg__text" d="M15.60 22L13.63 13.47L15.10 13.47L16.43 19.88L18.06 13.47L19.30 13.47L20.91 19.89L22.22 13.47L23.69 13.47L21.72 22L20.31 22L18.68 15.77L17.02 22L15.60 22ZM27.49 18.00L27.49 18.00L27.49 17.52Q27.49 16.28 27.94 15.32Q28.38 14.37 29.18 13.86Q29.99 13.35 31.03 13.35Q32.08 13.35 32.88 13.85Q33.69 14.35 34.13 15.29Q34.57 16.23 34.57 17.48L34.57 17.48L34.57 17.96Q34.57 19.21 34.14 20.16Q33.71 21.10 32.90 21.61Q32.09 22.12 31.05 22.12L31.05 22.12Q30.01 22.12 29.20 21.61Q28.39 21.10 27.94 20.17Q27.50 19.23 27.49 18.00ZM28.98 17.46L28.98 17.96Q28.98 19.36 29.52 20.13Q30.07 20.90 31.05 20.90L31.05 20.90Q32.03 20.90 32.56 20.15Q33.09 19.40 33.09 17.96L33.09 17.96L33.09 17.51Q33.09 16.09 32.55 15.34Q32.02 14.58 31.03 14.58L31.03 14.58Q30.07 14.58 29.53 15.33Q28.99 16.09 28.98 17.46L28.98 17.46ZM40.52 22L39.04 22L39.04 13.47L42.04 13.47Q43.51 13.47 44.32 14.13Q45.12 14.79 45.12 16.05L45.12 16.05Q45.12 16.90 44.71 17.48Q44.29 18.06 43.56 18.37L43.56 18.37L45.47 21.92L45.47 22L43.88 22L42.17 18.71L40.52 18.71L40.52 22ZM40.52 14.66L40.52 17.52L42.04 17.52Q42.79 17.52 43.22 17.15Q43.64 16.77 43.64 16.11L43.64 16.11Q43.64 15.43 43.25 15.05Q42.86 14.68 42.08 14.66L42.08 14.66L40.52 14.66ZM51.00 22L49.51 22L49.51 13.47L51.00 13.47L51.00 17.47L51.82 16.46L54.31 13.47L56.11 13.47L52.94 17.25L56.29 22L54.53 22L51.96 18.31L51.00 19.34L51.00 22ZM59.63 19.42L59.63 19.42L61.12 19.42Q61.12 20.15 61.60 20.55Q62.08 20.95 62.97 20.95L62.97 20.95Q63.75 20.95 64.14 20.63Q64.53 20.32 64.53 19.80L64.53 19.80Q64.53 19.24 64.13 18.94Q63.73 18.63 62.70 18.32Q61.67 18.01 61.06 17.63L61.06 17.63Q59.90 16.90 59.90 15.72L59.90 15.72Q59.90 14.69 60.74 14.02Q61.58 13.35 62.92 13.35L62.92 13.35Q63.81 13.35 64.51 13.68Q65.21 14.01 65.60 14.61Q66.00 15.22 66.00 15.96L66.00 15.96L64.53 15.96Q64.53 15.29 64.11 14.91Q63.69 14.54 62.91 14.54L62.91 14.54Q62.18 14.54 61.78 14.85Q61.38 15.16 61.38 15.71L61.38 15.71Q61.38 16.18 61.81 16.50Q62.25 16.81 63.24 17.10Q64.24 17.40 64.84 17.78Q65.45 18.16 65.73 18.65Q66.01 19.13 66.01 19.79L66.01 19.79Q66.01 20.86 65.19 21.49Q64.37 22.12 62.97 22.12L62.97 22.12Q62.05 22.12 61.27 21.77Q60.49 21.43 60.06 20.83Q59.63 20.22 59.63 19.42ZM76.00 18.00L76.00 18.00L76.00 17.52Q76.00 16.28 76.45 15.32Q76.89 14.37 77.69 13.86Q78.50 13.35 79.54 13.35Q80.59 13.35 81.39 13.85Q82.20 14.35 82.64 15.29Q83.08 16.23 83.08 17.48L83.08 17.48L83.08 17.96Q83.08 19.21 82.65 20.16Q82.22 21.10 81.41 21.61Q80.60 22.12 79.56 22.12L79.56 22.12Q78.52 22.12 77.71 21.61Q76.89 21.10 76.45 20.17Q76.01 19.23 76.00 18.00ZM77.49 17.46L77.49 17.96Q77.49 19.36 78.03 20.13Q78.58 20.90 79.56 20.90L79.56 20.90Q80.54 20.90 81.07 20.15Q81.60 19.40 81.60 17.96L81.60 17.96L81.60 17.51Q81.60 16.09 81.06 15.34Q80.53 14.58 79.54 14.58L79.54 14.58Q78.58 14.58 78.04 15.33Q77.50 16.09 77.49 17.46L77.49 17.46ZM89.03 22L87.55 22L87.55 13.47L89.03 13.47L92.84 19.54L92.84 13.47L94.31 13.47L94.31 22L92.83 22L89.03 15.95L89.03 22Z" fill="#FFFFFF"/><path class="svg__text" d="M122.95 22L120.22 13.60L122.67 13.60L124.36 18.96L126.14 13.60L128.32 13.60L130.01 19.01L131.78 13.60L134.05 13.60L131.32 22L128.78 22L127.17 16.89L125.49 22L122.95 22ZM140.94 22L138.56 22L138.56 13.60L140.94 13.60L140.94 22ZM148.44 22L146.11 22L146.11 13.60L148.07 13.60L151.78 18.07L151.78 13.60L154.10 13.60L154.10 22L152.15 22L148.44 17.52L148.44 22ZM163.24 22L159.26 22L159.26 13.60L163.24 13.60Q164.62 13.60 165.69 14.12Q166.75 14.63 167.34 15.58Q167.93 16.53 167.93 17.80L167.93 17.80Q167.93 19.07 167.34 20.02Q166.75 20.97 165.69 21.48Q164.62 22 163.24 22L163.24 22ZM161.64 15.50L161.64 20.10L163.14 20.10Q164.22 20.10 164.87 19.49Q165.53 18.88 165.53 17.80L165.53 17.80Q165.53 16.72 164.87 16.11Q164.22 15.50 163.14 15.50L163.14 15.50L161.64 15.50ZM172.23 17.80L172.23 17.80Q172.23 16.55 172.83 15.55Q173.44 14.56 174.50 14.00Q175.57 13.43 176.90 13.43L176.90 13.43Q178.23 13.43 179.29 14.00Q180.35 14.56 180.96 15.55Q181.57 16.55 181.57 17.80L181.57 17.80Q181.57 19.05 180.96 20.04Q180.35 21.04 179.29 21.60Q178.23 22.17 176.90 22.17L176.90 22.17Q175.57 22.17 174.50 21.60Q173.44 21.04 172.83 20.04Q172.23 19.05 172.23 17.80ZM174.63 17.80L174.63 17.80Q174.63 18.51 174.93 19.05Q175.23 19.60 175.75 19.90Q176.26 20.20 176.90 20.20L176.90 20.20Q177.53 20.20 178.05 19.90Q178.57 19.60 178.86 19.05Q179.16 18.51 179.16 17.80L179.16 17.80Q179.16 17.09 178.86 16.54Q178.57 16 178.05 15.70Q177.53 15.40 176.90 15.40L176.90 15.40Q176.26 15.40 175.74 15.70Q175.23 16 174.93 16.54Q174.63 17.09 174.63 17.80ZM188.37 22L185.65 13.60L188.10 13.60L189.79 18.96L191.56 13.60L193.75 13.60L195.44 19.01L197.20 13.60L199.47 13.60L196.75 22L194.20 22L192.60 16.89L190.92 22L188.37 22ZM203.40 21.24L203.40 21.24L204.18 19.49Q204.74 19.86 205.48 20.09Q206.23 20.32 206.95 20.32L206.95 20.32Q208.31 20.32 208.32 19.64L208.32 19.64Q208.32 19.28 207.93 19.11Q207.54 18.93 206.67 18.74L206.67 18.74Q205.72 18.53 205.09 18.30Q204.45 18.06 204.00 17.55Q203.54 17.03 203.54 16.16L203.54 16.16Q203.54 15.39 203.96 14.77Q204.38 14.15 205.22 13.79Q206.05 13.43 207.26 13.43L207.26 13.43Q208.08 13.43 208.89 13.62Q209.70 13.80 210.31 14.17L210.31 14.17L209.58 15.93Q208.38 15.28 207.25 15.28L207.25 15.28Q206.54 15.28 206.22 15.49Q205.89 15.70 205.89 16.04L205.89 16.04Q205.89 16.37 206.28 16.54Q206.66 16.71 207.51 16.89L207.51 16.89Q208.47 17.10 209.10 17.33Q209.73 17.56 210.19 18.07Q210.66 18.58 210.66 19.46L210.66 19.46Q210.66 20.21 210.24 20.83Q209.82 21.44 208.98 21.80Q208.14 22.17 206.94 22.17L206.94 22.17Q205.92 22.17 204.96 21.92Q203.99 21.67 203.40 21.24Z" fill="#FFFFFF" x="119.68"/></svg>